# xmcd CD database file
#
# Track frame offsets:
#	150
#	11070
#	40887
#	65706
#	92482
#	110748
#	117803
#	141780
#	164404
#	191529
#	213425
#
# Disc length: 3034 seconds
#
# Revision: 21
# Processed by: cddbd v1.5.1PL2 Copyright (c) Steve Scherf et al.
# Submitted via: CDex 1.51
#
DISCID=9b0bd80b
DTITLE=TEEMU MATTSSON - TEEMU MATTSSON
DYEAR=2005
DGENRE=Jazz
TTITLE0=ENNE
TTITLE1=NORTHERN TRIBE
TTITLE2=STANDING ALONE
TTITLE3=ENDLESS WAY
TTITLE4=RESTLESS
TTITLE5=WAKING UP
TTITLE6=PULSE
TTITLE7=SWEET LIFE
TTITLE8=BOTH SIDES
TTITLE9=LOST FOREVER
TTITLE10=STANDING ALONE(alt mix)
EXTD=YEAR: 2005
EXTT0=
EXTT1=
EXTT2=
EXTT3=
EXTT4=
EXTT5=
EXTT6=
EXTT7=
EXTT8=
EXTT9=
EXTT10=
PLAYORDER=
